<svg width="180" height="42" viewBox="0 0 180 42" fill="none" xmlns="http://www.w3.org/2000/svg">
<path d="M50.4326 30.2871C50.4406 29.5047 50.5336 28.7254 50.71 27.9631L54.9532 6.74713H57.3672C57.7076 6.74811 58.0436 6.8246 58.351 6.97111C58.6583 7.11762 58.9293 7.3305 59.1444 7.59439C59.3596 7.85828 59.5135 8.16662 59.595 8.49717C59.6766 8.82772 59.6839 9.17227 59.6162 9.50595L55.8678 28.173C55.8131 28.419 55.7879 28.6707 55.7928 28.9227C55.7928 29.5749 56.1302 29.8073 56.5425 29.8073C56.7709 29.8159 56.9991 29.7855 57.2172 29.7173L57.0148 33.5632C56.1195 33.8543 55.1824 33.9961 54.241 33.983C51.5496 33.9905 50.4326 32.5886 50.4326 30.2871Z" fill="white"/>
<path d="M71.1909 14.1089C75.689 14.1089 77.3758 17.2875 77.3758 21.2234C77.3368 22.7111 77.011 24.1773 76.4162 25.5415H65.6058C65.4708 28.6977 67.375 30.0396 69.879 30.0396C71.1434 29.9416 72.3519 29.478 73.3575 28.7052L75.2167 32.0038C73.2057 33.3437 70.8331 34.0369 68.4171 33.9904C63.8365 33.9904 60.6504 30.9542 60.6504 25.8714C60.6504 18.8469 66.153 14.1089 71.1909 14.1089ZM72.9227 22.3554C73.0331 21.8936 73.0909 21.4208 73.0951 20.946C73.0951 19.4466 72.4503 18.1422 70.5462 18.1422C68.642 18.1422 66.8952 19.5741 66.0481 22.3554H72.9227Z" fill="white"/>
<path d="M80.1645 28.9752C80.1855 28.1713 80.2784 27.371 80.4419 26.5837L82.0987 18.6446H79.5723L80.3219 14.7837L83.1183 14.5663L84.7526 9.57343H86.1095C86.4806 9.57278 86.8473 9.65464 87.1829 9.8131C87.5185 9.97157 87.8147 10.2027 88.0501 10.4897C88.2854 10.7767 88.454 11.1124 88.5437 11.4726C88.6333 11.8327 88.6418 12.2083 88.5684 12.5722L88.1936 14.5588H92.4818L91.6871 18.6371H87.2715L85.6072 26.8161C85.5418 27.2351 85.5117 27.659 85.5172 28.083C85.5172 29.335 86.132 29.9423 87.5039 29.9423C88.0426 29.9161 88.5682 29.7674 89.0407 29.5074L89.9853 33.1809C88.5661 33.7353 87.0559 34.02 85.5322 34.0205C81.7089 33.9905 80.1645 31.8839 80.1645 28.9752Z" fill="white"/>
<path d="M91.5 30.3096L94.5437 27.8132C95.8556 29.4175 97.265 30.1597 98.6369 30.1597C100.009 30.1597 101.276 29.41 101.276 28.368C101.276 27.3259 100.166 26.7787 98.0072 25.5567C95.8481 24.3347 94.1764 22.6854 94.1764 20.3089C94.1764 16.7479 97.4749 14.1315 101.523 14.1315C102.703 14.1574 103.865 14.428 104.934 14.9261C106.004 15.4242 106.959 16.139 107.738 17.0253L104.897 19.7467C104.477 19.2462 103.96 18.8355 103.378 18.5392C102.796 18.243 102.16 18.0672 101.508 18.0224C100.069 18.0224 99.0943 18.832 99.0943 19.8291C99.0943 21.0361 100.699 21.5834 102.22 22.453C104.469 23.675 106.186 25.1818 106.186 27.7832C106.186 31.5316 102.88 34.0131 98.2921 34.0131C96.95 33.9664 95.6372 33.6073 94.4582 32.9644C93.2791 32.3215 92.2662 31.4125 91.5 30.3096V30.3096Z" fill="white"/>
<path d="M110.407 28.9752C110.428 28.1714 110.521 27.371 110.684 26.5837L112.341 18.6446H109.814L110.564 14.7837L113.36 14.5663L114.957 9.60345H116.457C116.811 9.60383 117.16 9.68227 117.48 9.83318C117.8 9.98409 118.083 10.2037 118.309 10.4765C118.534 10.7493 118.697 11.0684 118.785 11.4112C118.873 11.754 118.884 12.112 118.818 12.4597L118.421 14.5663H122.709L121.914 18.6446H117.499L115.849 26.8161C115.784 27.2352 115.754 27.659 115.759 28.0831C115.759 29.335 116.374 29.9423 117.746 29.9423C118.285 29.9172 118.811 29.7684 119.283 29.5075L120.228 33.1809C118.808 33.7353 117.298 34.02 115.774 34.0205C111.951 33.9905 110.407 31.884 110.407 28.9752Z" fill="white"/>
<path d="M122.68 26.1713C122.68 18.8619 128.085 14.1089 133.31 14.1089C137.733 14.1089 140.672 17.2126 140.672 21.9206C140.672 29.23 135.267 33.9904 130.042 33.9904C125.618 33.9904 122.68 30.8868 122.68 26.1713ZM135.379 22.0255C135.379 19.709 134.495 18.3146 132.733 18.3146C130.176 18.3146 127.972 21.6432 127.972 26.0738C127.972 28.3828 128.865 29.7847 130.626 29.7847C133.183 29.8147 135.379 26.4486 135.379 22.0255Z" fill="white"/>
<path d="M143.048 26.1715C143.048 19.6193 147.951 14.1091 154.203 14.1091C155.172 14.0963 156.132 14.2996 157.012 14.7042C157.893 15.1088 158.672 15.7046 159.293 16.4481L156.392 19.5443C156.093 19.1621 155.71 18.8529 155.274 18.6399C154.838 18.427 154.359 18.3158 153.873 18.3148C150.875 18.3148 148.401 21.8383 148.401 26.074C148.401 28.383 149.465 29.7849 151.609 29.7849C152.721 29.7359 153.782 29.3012 154.608 28.5554L156.789 31.7866C154.984 33.2205 152.745 33.9978 150.44 33.9906C146.226 33.9906 143.048 31.1418 143.048 26.1715Z" fill="white"/>
<path d="M164.796 6.74713H166.161C166.625 6.74925 167.083 6.85321 167.502 7.05169C167.922 7.25017 168.293 7.53833 168.589 7.89581C168.885 8.2533 169.099 8.67141 169.215 9.12061C169.332 9.56981 169.349 10.0392 169.264 10.4955L166.903 22.228H167.045L174.212 14.5288H180L172.263 22.7753L176.761 33.4582H171.513L168.649 25.8115L165.576 28.8927L164.646 33.5632H159.398L164.796 6.74713Z" fill="white"/>
<path opacity="0.7" d="M24.0246 40.2827L34.9299 35.5164C37.9327 34.2009 37.9327 32.0751 34.9299 30.7501L24.0246 25.9838C20.5199 24.6775 16.662 24.6775 13.1574 25.9838L2.25208 30.7501C-0.750693 32.0656 -0.750693 34.1913 2.25208 35.5164L13.1574 40.2827C16.662 41.589 20.5199 41.589 24.0246 40.2827V40.2827Z" fill="white"/>
<path opacity="0.8" d="M24.0246 31.9701L34.9299 27.2038C37.9327 25.8979 37.9327 23.7721 34.9299 22.4375L24.0246 17.6712C20.5217 16.3554 16.6603 16.3554 13.1574 17.6712L2.25208 22.4375C-0.750693 23.753 -0.750693 25.8788 2.25208 27.2038L13.1574 31.9701C16.662 33.2764 20.5199 33.2764 24.0246 31.9701V31.9701Z" fill="white"/>
<path opacity="0.9" d="M24.0246 23.61L34.9299 18.8437C37.9327 17.5378 37.9327 15.412 34.9299 14.0774L24.0246 9.31111C20.5217 7.99534 16.6603 7.99534 13.1574 9.31111L2.25208 14.0774C-0.750693 15.3929 -0.750693 17.5187 2.25208 18.8437L13.1574 23.61C16.6603 24.9258 20.5217 24.9258 24.0246 23.61V23.61Z" fill="white"/>
<path d="M34.9299 5.74604C37.9327 7.06154 37.9327 9.17778 34.9299 10.5123L24.0246 15.2787C20.5199 16.585 16.662 16.585 13.1574 15.2787L2.25208 10.5123C-0.750693 9.19684 -0.750693 7.0806 2.25208 5.74604L13.1574 0.97973C16.662 -0.326577 20.5199 -0.326577 24.0246 0.97973L34.9299 5.74604Z" fill="white"/>
</svg>
